Coordinates
nRows=6
nColumns=38

# SIMM Motion File Header:
name Coordinates
datacolumns 38
datarows 6
otherdata 1
range 0.33333000000000002000 0.33833000000000002000

Units are S.I. units (second, meters, Newtons, ...)
Angles are in degrees.

endheader
time	pelvis_tilt	pelvis_list	pelvis_rotation	pelvis_tx	pelvis_ty	pelvis_tz	hip_flexion_r	hip_adduction_r	hip_rotation_r	knee_angle_r	ankle_angle_r	subtalar_angle_r	mtp_angle_r	hip_flexion_l	hip_adduction_l	hip_rotation_l	knee_angle_l	ankle_angle_l	subtalar_angle_l	mtp_angle_l	lumbar_extension	lumbar_bending	lumbar_rotation	arm_flex_r	arm_add_r	arm_rot_r	elbow_flex_r	pro_sup_r	wrist_flex_r	wrist_dev_r	arm_flex_l	arm_add_l	arm_rot_l	elbow_flex_l	pro_sup_l	wrist_flex_l	wrist_dev_l
      0.33333000000000002000	      0.71109387712315186000	     -6.86796091521212930000	     -6.96484804386813840000	      0.87194008428604475000	      1.03022974211898190000	     -0.30863491418596861000	     11.71163239957939500000	     14.51694570912789000000	      4.20858623162083490000	    -42.15010597677049700000	     30.11929046411462700000	     -0.00000000000000151196	     -0.00000000000001405714	     24.81679448516919400000	     -7.62866630251233250000	      0.56402273902093358000	    -86.04756525521222000000	      9.35257667667490720000	      0.00000000000000109186	     -0.00000000000000905441	    -22.11413883500028300000	      6.26986819919105360000	     10.11217554896710200000	     -6.11151473638828070000	    -29.41429054463072000000	      0.75621286407648991000	    101.53550816191375000000	    105.66808816065642000000	      0.00000000000000470619	     -0.00000000000001192311	    -16.63049480566210300000	    -17.89573982551007300000	     13.64255266666436800000	    102.38092758815894000000	    101.16337993389314000000	      0.00000000000000569477	      0.00000000000000151310
      0.33433000000000002000	      0.65187174985010987000	     -6.80916048410491830000	     -7.00277656154442330000	      0.87188451256882682000	      1.03049498281272100000	     -0.30850632522916610000	     11.56684620503502900000	     14.46443731667560700000	      4.29670285233590300000	    -42.00435284725924800000	     30.08930041463262500000	     -0.00000000000000153918	     -0.00000000000001416872	     25.01120362966147000000	     -7.59994242474071950000	      0.55144051940432470000	    -85.89460440084269500000	      9.41483954282183790000	      0.00000000000000111233	     -0.00000000000000915939	    -22.02963702277307300000	      6.19795390732893830000	     10.23984831775857900000	     -6.05397156372455300000	    -29.43628380113681700000	      0.71342790611185081000	    101.75860197232520000000	    105.58456105717472000000	      0.00000000000000470895	     -0.00000000000001212056	    -16.74752837134521900000	    -17.96072672552866200000	     13.64623622560545100000	    102.50550147877004000000	    101.21543166401227000000	      0.00000000000000573197	      0.00000000000000152951
      0.33533000000000002000	      0.59175444684304412000	     -6.74874565179490030000	     -7.04049223558147210000	      0.87183182594048492000	      1.03076580256085020000	     -0.30837850022632107000	     11.42224443347409100000	     14.40999592156525600000	      4.38535149797627890000	    -41.85643815071889400000	     30.05695683813951600000	     -0.00000000000000157259	     -0.00000000000001424050	     25.20496554233144000000	     -7.56958369443723190000	      0.53789535920647957000	    -85.73706396316494200000	      9.47521327285274850000	      0.00000000000000113192	     -0.00000000000000926615	    -21.94351319639212500000	      6.12455135146714280000	     10.36719447759253200000	     -5.99940309360708210000	    -29.45760551399589700000	      0.66879194073045301000	    101.98290780601830000000	    105.50663558478749000000	      0.00000000000000470816	     -0.00000000000001231633	    -16.86480877664778100000	    -18.02581092692310700000	     13.64873539953234700000	    102.63021664471236000000	    101.26565481874248000000	      0.00000000000000576940	      0.00000000000000154641
      0.33633000000000002000	      0.53080437860314067000	     -6.68673195847157320000	     -7.07794943336840100000	      0.87178202203307409000	      1.03104225291494830000	     -0.30825154532236615000	     11.27778329513818500000	     14.35361251416274300000	      4.47448518176600630000	    -41.70637938292799200000	     30.02222071398779900000	     -0.00000000000000163425	     -0.00000000000001423399	     25.39800453814838100000	     -7.53757925429990380000	      0.52341673914483344000	    -85.57495306368561200000	      9.53367898658849460000	      0.00000000000000114878	     -0.00000000000000938526	    -21.85585542355561400000	      6.04968203278071390000	     10.49417311343025400000	     -5.94780106462044600000	    -29.47824992346226500000	      0.62233513448936073000	    102.20839475989708000000	    105.43421936625504000000	      0.00000000000000470282	     -0.00000000000001251288	    -16.98232291239646900000	    -18.09096065864899600000	     13.65007371348047400000	    102.75497754659993000000	    101.31392890027313000000	      0.00000000000000580711	      0.00000000000000156136
      0.33733000000000002000	      0.46908455780560854000	     -6.62313801833072270000	     -7.11510073293738990000	      0.87173510164114010000	      1.03132438380646120000	     -0.30812556859841234000	     11.13341801328951400000	     14.29528099232651100000	      4.56405406586315720000	    -41.55419393659234100000	     29.98505053870014700000	     -0.00000000000000169812	     -0.00000000000001424484	     25.59024401759123500000	     -7.50392062382653260000	      0.50803642977982055000	    -85.40828109548128600000	      9.59022096901305150000	      0.00000000000000116218	     -0.00000000000000951954	    -21.76675218180325500000	      5.97337092894596560000	     10.62074029224784900000	     -5.89915319699216130000	    -29.49821254642773700000	      0.57409326148359519000	    102.43503142196249000000	    105.36720595177194000000	      0.00000000000000469857	     -0.00000000000001270496	    -17.10006122633126000000	    -18.15614375104562900000	     13.65027287852360300000	    102.87969497495169000000	    101.36014429042771000000	      0.00000000000000584523	      0.00000000000000157528
      0.33833000000000002000	      0.40665830773500039000	     -6.55798544237844010000	     -7.15189712209337620000	      0.87169106849485067000	      1.03161224314103460000	     -0.30800067985857943000	     10.98910325630174400000	     14.23499814503995400000	      4.65400541595646460000	    -41.39989938716971800000	     29.94540297373784600000	     -0.00000000000000176336	     -0.00000000000001421920	     25.78160678710634500000	     -7.46860170786393680000	      0.49178830984210375000	    -85.23705775878136100000	      9.64482663521497410000	      0.00000000000000117360	     -0.00000000000000966377	    -21.67629203931106100000	      5.89564642893070530000	     10.74684924447219100000	     -5.85344320971260060000	    -29.51749014579434800000	      0.52410745975505624000	    102.66278576113639000000	    105.30547616044163000000	      0.00000000000000470828	     -0.00000000000001289394	    -17.21801754190311600000	    -18.22132764110591200000	     13.64935268995170100000	    103.00428590236983000000	    101.40420263639965000000	      0.00000000000000588398	      0.00000000000000158910
